
<svg width="1024" height="1024" viewBox="0 0 1024 1024" fill="none" xmlns="http://www.w3.org/2000/svg">
<rect width="1024" height="1024" rx="512" fill="#0052FF"/>
<path d="M512 724C436.8 724 376 663.2 376 588C376 525.6 417.6 474.4 473.6 460.8C481.6 458.4 489.6 464 489.6 472V520C489.6 528 483.2 534.4 475.2 536C454.4 540 440 562.4 440 588C440 627.2 472 660 512 660C550.4 660 584 628 584 588C584 562.4 567.2 540.8 546.4 536C538.4 534.4 532 528 532 520V472C532 464 540 458.4 548 460.8C604 474.4 645.6 525.6 645.6 588C644 663.2 585.6 724 512 724Z" fill="white"/>
<path d="M548 440C548 424 534.4 412 520 412H504C489.6 412 476 426.4 476 440V444C476 458.4 489.6 472.8 504 472.8H520C534.4 472.8 548 458.4 548 444V440Z" fill="white"/>
<path d="M512 128C300.8 128 128 300.8 128 512C128 723.2 300.8 896 512 896C723.2 896 896 723.2 896 512C896 300.8 723.2 128 512 128ZM512 824C339.2 824 200 684.8 200 512C200 339.2 339.2 200 512 200C684.8 200 824 339.2 824 512C824 684.8 684.8 824 512 824Z" fill="white"/>
</svg>
