
<svg width="128" height="128" viewBox="0 0 128 128" fill="none" xmlns="http://www.w3.org/2000/svg">
<circle cx="64" cy="64" r="64" fill="url(#paint0_linear_1124_5641)"/>
<path d="M110.584 64.9142H99.142C99.142 41.7651 80.173 23 56.7724 23C33.6612 23 14.8253 41.3057 14.3853 64.0583C13.9685 85.9974 33.1411 106 55.69 106H59.8528C80.173 106 108.996 91.6033 110.828 72.5196C111.071 69.8142 111.071 67.5962 110.584 64.9142ZM39.4338 65.6935C39.4338 68.8599 36.8047 71.4661 33.6078 71.4661C30.4109 71.4661 27.7817 68.8599 27.7817 65.6935V56.2255C27.7817 53.0591 30.4109 50.4529 33.6078 50.4529C36.8047 50.4529 39.4338 53.0591 39.4338 56.2255V65.6935ZM57.9588 65.6935C57.9588 68.8599 55.3297 71.4661 52.1328 71.4661C48.9359 71.4661 46.3068 68.8599 46.3068 65.6935V56.2255C46.3068 53.0591 48.9359 50.4529 52.1328 50.4529C55.3297 50.4529 57.9588 53.0591 57.9588 56.2255V65.6935Z" fill="url(#paint1_linear_1124_5641)"/>
<defs>
<linearGradient id="paint0_linear_1124_5641" x1="64" y1="0" x2="64" y2="128" gradientUnits="userSpaceOnUse">
<stop stop-color="#534BB1"/>
<stop offset="1" stop-color="#551BF9"/>
</linearGradient>
<linearGradient id="paint1_linear_1124_5641" x1="62.1061" y1="23" x2="62.1061" y2="106" gradientUnits="userSpaceOnUse">
<stop stop-color="white"/>
<stop offset="1" stop-color="white" stop-opacity="0.82"/>
</linearGradient>
</defs>
</svg>
