
<svg width="512" height="512" viewBox="0 0 512 512" fill="none" xmlns="http://www.w3.org/2000/svg">
<rect width="512" height="512" rx="256" fill="#3B99FC"/>
<path d="M169.469 165.452C224.949 111.969 315.048 111.969 370.531 165.452L377.531 172.181C380.083 174.647 380.083 178.691 377.531 181.154L357.692 200.231C356.419 201.462 354.371 201.462 353.099 200.231L343.731 191.21C304.372 153.312 235.627 153.312 196.269 191.21L186.171 200.961C184.899 202.193 182.851 202.193 181.579 200.961L161.739 181.884C159.187 179.417 159.187 175.374 161.739 172.911L169.469 165.452ZM395.139 188.877L412.699 205.772C415.251 208.238 415.251 212.282 412.699 214.745L320.48 303.311C317.931 305.778 313.84 305.778 311.291 303.311C311.291 303.311 311.291 303.311 311.291 303.311L246.771 241.219C246.139 240.607 245.131 240.607 244.499 241.219C244.499 241.219 244.499 241.219 244.499 241.219L179.979 303.311C177.43 305.778 173.339 305.778 170.789 303.311C170.789 303.311 170.789 303.311 170.789 303.311L78.3013 214.741C75.7493 212.275 75.7493 208.231 78.3013 205.768L95.8613 188.873C98.41 186.407 102.501 186.407 105.05 188.873L169.6 250.966C170.232 251.577 171.24 251.577 171.872 250.966C171.872 250.966 171.872 250.966 171.872 250.966L236.388 188.873C238.937 186.407 243.028 186.406 245.578 188.873C245.578 188.873 245.578 188.873 245.578 188.873L310.101 250.966C310.731 251.577 311.741 251.577 312.371 250.966L376.921 188.877C379.471 186.41 383.56 186.41 386.111 188.877L395.139 188.877Z" fill="white"/>
</svg>
